
        <svg xmlns="http://www.w3.org/2000/svg" xmlns:xlink="http://www.w3.org/1999/xlink" version="1.1" width="3204.081632653061" 
        height="951.8599788956988" viewBox="0 0 3204.081632653061 951.8599788956988">
			
			<g transform="scale(10.204081632653061) translate(10, 10)">
				<defs id="SvgjsDefs4727"></defs><g id="SvgjsG4728" featureKey="symbolFeature-0" transform="matrix(0.8719186863212419,0,0,0.8719186863212419,-5.772950592176186,-5.724236815778455)" fill="#9402fd"><path xmlns="http://www.w3.org/2000/svg" d="M79.456,82.481c-16.8,10.41-44.136,10.41-60.936,0c-5.703-3.534-9.545-7.939-11.108-12.638  c2.201,2.452,4.931,4.712,8.145,6.703c9.217,5.71,21.324,8.565,33.431,8.565c12.107,0,24.214-2.856,33.431-8.565  c3.214-1.992,5.944-4.251,8.146-6.703C89.002,74.541,85.161,78.947,79.456,82.481L79.456,82.481z M18.534,15.519  c8.399-5.205,19.434-7.807,30.467-7.807c11.033,0,22.068,2.602,30.468,7.807c10.262,6.358,14.22,15.165,10.589,23.56  c-1.813,4.189-5.474,8.078-10.589,11.247c-16.8,10.41-44.136,10.41-60.935,0c-5.097-3.158-8.752-7.032-10.571-11.203  C4.296,30.716,8.249,21.891,18.534,15.519L18.534,15.519z M7.394,48.358c1.551,4.716,5.401,9.14,11.127,12.687  c16.8,10.408,44.135,10.408,60.935,0c5.704-3.534,9.547-7.938,11.11-12.636c-2.209,2.455-4.933,4.717-8.133,6.7  c-9.216,5.71-21.326,8.567-33.431,8.567c-12.109,0-24.214-2.856-33.431-8.567C12.348,53.113,9.61,50.833,7.394,48.358L7.394,48.358z   M15.556,65.827c-3.216-1.993-5.946-4.255-8.149-6.708c1.561,4.701,5.405,9.108,11.112,12.644c16.8,10.409,44.135,10.409,60.935,0  c5.708-3.536,9.552-7.943,11.113-12.644c-2.201,2.454-4.932,4.716-8.149,6.708c-9.217,5.71-21.324,8.567-33.431,8.567  C36.88,74.394,24.772,71.537,15.556,65.827L15.556,65.827z M42.487,32.166l-9.486,5.477l8.219,4.746  c2.737,1.581,8.012,1.305,11.287-0.584c1.609-0.929,2.034-1.827,2.034-2.171c0-0.313-0.392-0.733-1.022-1.097L42.487,32.166  L42.487,32.166z M57.599,23.441l-9.487,5.477l8.219,4.745c0.001,0.001,0.001,0.001,0.001,0.001c2.737,1.58,8.011,1.307,11.287-0.585  c1.609-0.929,2.034-1.826,2.034-2.171c0-0.312-0.391-0.732-1.021-1.097L57.599,23.441L57.599,23.441z M20.538,36.943l1.211,0.699  l-0.001,0.001l3.915,2.259l-3.295,1.902c-1.346,0.777-1.807,2.497-1.03,3.842c0.777,1.346,2.497,1.807,3.842,1.029l5.762-3.326  c0.113-0.065,0.219-0.137,0.32-0.214l2.277,1.315l-3.295,1.902c-1.346,0.777-1.806,2.497-1.029,3.842  c0.521,0.902,1.466,1.407,2.439,1.407c0.477,0,0.961-0.122,1.404-0.377l5.762-3.327c0.124-0.071,0.24-0.151,0.349-0.238  c4.506,2.137,11.401,1.758,16.15-0.984c2.83-1.633,4.551-3.934,4.813-6.39c3.531,0.163,7.335-0.624,10.3-2.336  c3.08-1.778,4.847-4.345,4.847-7.043c0-1.23-0.372-2.404-1.064-3.444l3.249-1.876c1.346-0.777,1.806-2.498,1.029-3.842  c-0.777-1.346-2.496-1.806-3.842-1.029l-5.141,2.968c-0.04,0.023-0.078,0.046-0.115,0.07l-2.255-1.302l2.447-1.413  c1.346-0.777,1.807-2.496,1.03-3.841c-0.777-1.346-2.496-1.807-3.842-1.03l-5.141,2.968c-0.04,0.022-0.078,0.046-0.116,0.07  l-2.505-1.446c-0.002-0.001-0.003-0.002-0.005-0.003l-5.431-3.135c-1.344-0.777-3.065-0.317-3.842,1.029  c-0.777,1.346-0.315,3.067,1.031,3.842l1.21,0.699l-6.958,4.017c-0.003,0.002-0.005,0.003-0.009,0.005l-3.926,2.267  c-0.001,0.001-0.002,0.001-0.003,0.002l-13.701,7.911l-4.024-2.323c-1.345-0.778-3.064-0.315-3.842,1.029  C18.731,34.446,19.192,36.167,20.538,36.943z" style="fill-rule: evenodd; clip-rule: evenodd;"></path></g><g id="SvgjsG4729" featureKey="nameFeature-0" transform="matrix(1.1507479659850166,0,0,1.1507479659850166,93.07940140772423,-12.612198848532113)" fill="#0d0d0d"><path d="M16.52 40.56 c-10.88 0 -15.72 -5.92 -15.72 -14.68 l0 -0.32 c0 -8.96 6.56 -14.6 15.2 -14.6 c8.2 0 13.44 3.6 14.16 11.84 l-11.04 0 c-0.12 -2.16 -1.24 -3.44 -3.08 -3.44 c-2.52 0 -4 2 -4 6.16 l0 0.32 c0 4.04 1.44 6.2 4.2 6.2 c1.96 0 3.4 -1.04 3.64 -3.44 l10.64 0 c-0.32 7.8 -6.08 11.96 -14 11.96 z M33.28 40 l0 -28.6 l12.56 0 c8.52 0 12.48 3.44 12.48 9.64 l0 0.16 c0 3.76 -1.64 6 -4.2 7.4 l5.88 11.4 l-11.08 0 l-4.44 -9.08 l-0.6 0 l0 9.08 l-10.6 0 z M43.88 24.240000000000002 l1.2 0 c2.08 0 3 -0.84 3 -2.52 l0 -0.16 c0 -1.56 -0.92 -2.24 -2.92 -2.24 l-1.28 0 l0 4.92 z M69.48 40 l0 -12.12 l-9.2 -16.48 l11.52 0 l3.48 7.76 l3.6 -7.76 l10.12 0 l-8.8 16.44 l0 12.16 l-10.72 0 z M91.32 40 l0 -28.6 l12.32 0 c9.04 0 12.24 4.04 12.24 10.2 l0 0.16 c0 5.92 -3.76 9.6 -11.72 9.6 l-2.24 0 l0 8.64 l-10.6 0 z M101.92 24.32 l1.04 0 c1.92 0 2.88 -0.84 2.88 -2.52 l0 -0.16 c0 -1.64 -0.92 -2.36 -2.84 -2.36 l-1.08 0 l0 5.04 z M124.11999999999999 40 l0 -20.44 l-6.92 0 l0 -8.16 l24.56 0 l0 8.16 l-6.92 0 l0 20.44 l-10.72 0 z M158.88 32.24 c2.8 0 4.6 -2.24 4.6 -6.4 l0 -0.32 c0 -4.4 -1.92 -6.28 -4.64 -6.28 c-2.68 0 -4.52 1.92 -4.52 6.28 l0 0.32 c0 4.32 1.64 6.4 4.56 6.4 z M158.6 40.56 c-9.64 0 -15.4 -5.8 -15.4 -14.68 l0 -0.32 c0 -9.04 7 -14.6 15.64 -14.6 c8.88 0 15.76 5 15.76 14.32 l0 0.32 c0 9.16 -6.28 14.96 -16 14.96 z"></path></g><g id="SvgjsG4730" featureKey="nameFeature-1" transform="matrix(0.9871668014551431,0,0,0.9871668014551431,93.32872674446891,33.18065087695858)" fill="#0d0d0d"><path d="M7.6 40 l0 -20.44 l-6.92 0 l0 -8.16 l24.56 0 l0 8.16 l-6.92 0 l0 20.44 l-10.72 0 z M28.240000000000002 40 l0 -28.6 l12.56 0 c8.52 0 12.48 3.44 12.48 9.64 l0 0.16 c0 3.76 -1.64 6 -4.2 7.4 l5.88 11.4 l-11.08 0 l-4.44 -9.08 l-0.6 0 l0 9.08 l-10.6 0 z M38.84 24.240000000000002 l1.2 0 c2.08 0 3 -0.84 3 -2.52 l0 -0.16 c0 -1.56 -0.92 -2.24 -2.92 -2.24 l-1.28 0 l0 4.92 z M55.28 40 l8.8 -28.6 l13.72 0 l8.76 28.6 l-11.36 0 l-0.96 -3.8 l-8.08 0 l-0.96 3.8 l-9.92 0 z M70.24000000000001 19.96 l-2.32 9.12 l4.56 0 z M103.11999999999999 40.56 c-10.88 0 -15.72 -5.92 -15.72 -14.68 l0 -0.32 c0 -8.96 6.56 -14.6 15.2 -14.6 c8.2 0 13.44 3.6 14.16 11.84 l-11.04 0 c-0.12 -2.16 -1.24 -3.44 -3.08 -3.44 c-2.52 0 -4 2 -4 6.16 l0 0.32 c0 4.04 1.44 6.2 4.2 6.2 c1.96 0 3.4 -1.04 3.64 -3.44 l10.64 0 c-0.32 7.8 -6.08 11.96 -14 11.96 z M119.88 40 l0 -28.6 l10.68 0 l0 9.76 l6.64 -9.76 l10.96 0 l-9.32 13 l9.84 15.6 l-12.2 0 l-5.92 -10.28 l0 10.28 l-10.68 0 z M151.16 40 l0 -28.6 l21.36 0 l0 8.12 l-10.76 0 l0 2.44 l8.48 0 l0 7.36 l-8.48 0 l0 2.56 l11.36 0 l0 8.12 l-21.96 0 z M176.56 40 l0 -28.6 l12.56 0 c8.52 0 12.48 3.44 12.48 9.64 l0 0.16 c0 3.76 -1.64 6 -4.2 7.4 l5.88 11.4 l-11.08 0 l-4.44 -9.08 l-0.6 0 l0 9.08 l-10.6 0 z M187.16 24.240000000000002 l1.2 0 c2.08 0 3 -0.84 3 -2.52 l0 -0.16 c0 -1.56 -0.92 -2.24 -2.92 -2.24 l-1.28 0 l0 4.92 z"></path></g>
			</g>
		</svg>
	